<svg height="503" viewBox="0 0 883 503" width="883" xmlns="http://www.w3.org/2000/svg" xmlns:xlink="http://www.w3.org/1999/xlink"><defs><path id="a" d="m620.98 259.2.020307 1.567667-117.666112-.594294 1.439891-.483348 1.445191-.489766zm-545.631452-259.2.028452.113 215.64644 120.198601c17.331724 16.666667 39.131393 25 65.399008 25 26.267614 0 48.067283-8.333333 65.399007-25l197.679776 21.586834.348843 27.618442-11.681123 3.071213-12.366805 3.2686c-35.742512 9.47152-73.987675 19.816224-114.735489 31.034112-70.866039-14.240129-112.072523-17.543323-123.619454-9.909583-14.173048 9.369881-25.042551 44.954295-25.704126 62.325884l-20.877171-.106844h-169.980337l-2.113569-12.454259-.14-.102-.140234.117561-.069766-.268561-138.422-100.081645z"/><mask id="b" fill="#fff"><use fill="#fff" fill-rule="evenodd" xlink:href="#a"/></mask></defs><g fill="none" fill-rule="evenodd" transform="translate(0 .3)"><path d="m879.307887 436.784398.371473 2.407161.155749 1.057638h-272.040031l-.136535.007479c-.090547.00995-.179873.029783-.266362.059232-28.850751 9.82337-54.519509 15.809393-77.00077 17.961937-.386595.037016-.734025.251618-.940189.580742l-1.181286 1.878913-1.29901 2.04968-1.276574 1.996601-1.254132 1.943516-1.536101 2.354738-1.501021 2.271775-1.175551 1.757682c-.776214 1.154086-1.537452 2.272768-2.283709 3.356039l-.99256 1.432601-.974566 1.390076-.92011 1.296503-.903467 1.25718-.073587.114192c-.266716.467582-.202769 1.056271.158126 1.455677l.09639.095729 11.660045 10.396708-.515732.083648c-12.019884 1.900865-22.120938 1.328466-30.307425-1.692124-5.953319-2.196611-5.235284-14.265586 2.549894-36.002041l.637898-1.759537.668097-1.800761.345386-.915833.713478-1.862554.368103-.946716.758961-1.924295.39087-.977573.804546-1.985984.413687-1.008404.850231-2.047619c.43274-1.034077.876923-2.083552 1.332573-3.148412l.9266-2.150229.957225-2.191232c.324184-.737242.65348-1.481314.987896-2.232212.280859-.630643-.002696-1.36956-.633338-1.650419s-1.36956.002696-1.650419.633338l-1.185629 2.681517-.374227.854809-.735061 1.691718-.717188 1.667858-.699296 1.64401-.681387 1.62017-.663457 1.596339-.64551 1.57252-.627544 1.548708-.609559 1.524907-.591556 1.501115-.853537 2.207085-.546466 1.441677-.528398 1.41792-.510311 1.394171-.492206 1.370432-.704319 2.011158-.44686 1.311126-.428689 1.287421c-.139866.42519-.276701.846431-.4105 1.263725l-.392292 1.240038-.374066 1.216362-.35582 1.192694-.171063.587475-.328417 1.157212-.157351.569739-.300973 1.12175-.282654 1.098121c-.136743.543156-.26661 1.077453-.38959 1.602899l-.236773 1.039092c-.075862.34243-.148659.680928-.218389 1.015496l-.199985.99191c-.063593.326706-.124115.649484-.181563.968334l-.163123.944767c-.076948.466494-.146974.924153-.210068 1.372985l-.11694.885892c-.520503 4.224936-.392537 7.625235.393353 10.205764-9.31433-1.826887-15.10336-5.632182-17.515695-11.462966-.029984-.146254-.085916-.285914-.165815-.411627-.761065-1.998177-1.138708-4.226788-1.138708-6.687619l.00176-.312735.014085-.640384.02817-.660264.019367-.337585.049298-.690072.029932-.352484.070426-.719865c.025824-.243264.053995-.489838.084513-.739719l.098599-.759567c.035214-.256496.072776-.516299.112685-.779408l.126773-.799243.140858-.819072.154946-.838895.169034-.858711.18312-.87852.197209-.898324.211297-.918121.225384-.937912.239473-.957696.253562-.977474.26765-.997246.28174-1.017011.295829-1.03677.309918-1.056523.324008-1.076269.338098-1.096009.352188-1.115742.554701-1.710601.387414-1.165048.401506-1.18476.628678-1.814085.436733-1.23401.450825-1.2537.464917-1.273382.479009-1.293059.493101-1.312729.766076-2.005961.797784-2.050183.829494-2.094383.570612-1.420801.882345-2.168003.605848-1.469861.619941-1.489473.634036-1.509081.977482-2.300368.669273-1.558069 1.380833-3.174885.726228-1.650003.756178-1.704676.787364-1.761323c.282635-.629848.001164-1.369562-.628685-1.652197-.629848-.282635-1.369562-.001163-1.652197.628685l-.795832 1.780275-1.140698 2.576594-1.105969 2.528515-.718018 1.658978-1.048086 2.448436-.679428 1.605615-.663993 1.584282-.648556 1.562957-.633119 1.541638-.920734 2.272501-.886 2.224575-.851265 2.176674-.548212 1.424515-.532774 1.403244-.517335 1.381979-.501897 1.360722-.723896 2.00124-.463299 1.30761-.447858 1.286377-.642838 1.889771-.409258 1.233328-.393818 1.21212-.470558 1.485339-.446432 1.452228-.339774 1.137952-.324332 1.116777-.383699 1.366204-.359572 1.333144-.270284 1.042721-.254841 1.021578-.239399 1.000442-.113908.492298-.216233.968753-.20079.947635-.185345.926524-.169902.905421-.079159.444799-.146735.87378-.131291.852695c-.061784.421077-.117776.834249-.167976 1.239522l-.092677.800012-.077232.778952c-.034754.384212-.063716.760529-.086886 1.128956l-.038617.726332c-.020595.477209-.030893.940395-.030893 1.389567 0 1.864658.194075 3.61372.579464 5.246704-10.918409-4.396003-16.77186-9.961959-17.739042-16.629505-.106006-.730783-.133401-1.595445-.082216-2.593495l.035711-.557616.023701-.288724.059088-.597268.074672-.623682c.054975-.424587.120338-.866772.196088-1.326529l.121414-.702813.136992-.729154.15257-.755479.168146-.781785.183721-.808073.199294-.834344.214868-.860597.230438-.886832.24601-.91305.261578-.939249.277146-.965432.292714-.991596.308279-1.017742.323843-1.043872.339407-1.069982.354969-1.096076.561631-1.692999.393869-1.161232.409428-1.187262.424985-1.213276.666645-1.868651.463872-1.278232.479425-1.304184.494978-1.330117.771623-2.043763.806607-2.102014.84159-2.160205.876566-2.218336.603808-1.511156.934853-2.315088.96982-2.37306.66597-1.614217 1.02809-2.469546 1.063045-2.527358 1.534436-3.606014 1.232633-2.864422 1.312941-3.022557c.276109-.632737-.012995-1.369501-.645731-1.64561-.632737-.276109-1.369501.012995-1.64561.645732l-1.334249 3.071487-1.25226 2.90978-1.210943 2.841351-1.16963 2.772996-1.128323 2.704715-1.08702 2.636508-1.045721 2.568376-.674207 1.674436-.976902 2.454987-.628332 1.598912-.609984 1.56874-1.164932 3.047055-.55495 1.478359-.798035 2.161138-.509099 1.403192-.49076 1.373163-.472424 1.343156-.454088 1.313172-.435754 1.28321-.417422 1.253269-.399091 1.22335-.380761 1.193454-.183508.585523-.353269 1.14865-.334944 1.118808-.316619 1.088989-.298296 1.059191-.279974 1.029416-.261654.999661-.243335.96993-.225018.94022-.206702.910532c-.065848.298565-.128644.592186-.188387.880866l-.170074.851222-.151763.821601c-.546661 3.09272-.689734 5.533008-.429583 7.326431.117456.809718.294079 1.602473.529475 2.379242-6.150028-3.58405-10.641049-7.779711-13.492195-12.579612-.413944-.696874-.697809-1.742794-.857624-3.078411l-.054128-.51432-.042569-.540783-.016972-.280099-.025363-.579175-.01665-.6039v-.62793l.008571-.651263.019742-.673903.030842-.695845.04187-.717093.052828-.737645.063716-.757502.074533-.776663.085279-.795128.095954-.812899.10656-.829974.117093-.846353.127557-.862036.13795-.877025.148272-.891318.158523-.904915.168705-.917817.178814-.930024.188854-.941534.198822-.95235.208721-.96247.331486-1.461159.233156-.984727.242808-.992413.252388-.999403.261897-1.005699.271336-1.011297.280704-1.016202.290001-1.02041.299228-1.023923.312066-1.038834.197339-.642852.406406-1.292609c.136925-.428638.275294-.855013.415071-1.279033l.423518-1.264901c.285113-.838434.575714-1.667076.871515-2.485184l.447563-1.21917.226639-.603486.458856-1.194427c.154174-.395309.309558-.787752.466115-1.177238l.473157-1.15949c.158868-.383478.318874-.763905.479982-1.141189l.486591-1.12233c.816374-1.854525 1.659385-3.628156 2.524528-5.309308l.521706-.997501c3.670027-6.903526 7.714567-12.134841 11.7998-14.835611 7.231927-4.781068 27.148359-5.060622 59.543128-.784388l2.934375.395126 1.993298.276954c.334685.047061.670605.094574 1.007759.142538l3.067706.443867 3.134321.468249 2.126539.325717c.356889.05519.715011.110831 1.074364.166924l3.267453.517042c3.850837.617452 7.837479 1.284739 11.959691 2.001924l3.566519.62695c1.799855.319587 3.624598.648341 5.474211.986269l3.73238.688087 3.798666.712556 3.86492.737035 4.924269.955729 3.024556.595842 4.189686.835933c.19162.038505.3896.031539.57804-.020338l16.222445-4.456151 16.137459-4.412502 10.605416-2.888327 13.084769-3.550398 12.893654-3.483721 12.70254-3.417043 12.511426-3.350365 14.761438-3.932423 9.688066-2.568273 11.938077-3.15033 14.073419-3.692382 9.229384-2.408245 8.951087-2.325146 10.701168-2.765615 8.104856-2.083936 13.438185-3.433904 1.676978-.41397c54.018126-12.917905 87.146008 19.753586 99.613279 98.722224zm-156.980887-110.743398 67.712 7.547-.827931.110361c-3.442836.485877-6.975856 1.170248-10.598999 2.053306l-1.211052.301712-8.664299 2.210902-8.456154 2.168618-11.451146 2.952996-8.720563 2.260876-5.876664 1.529217-5.927028 1.54679-5.977391 1.564364zm-241.042774-297.2803416c8.56399 42.6182956 26.758939 77.5203716 54.587352 104.6752966.332997.324937.818908.438041 1.26117.293556l1.881799-.608994 1.842941-.584567 1.19733-.372998 1.748952-.53444 1.134549-.339597 1.109368-.326244 1.084149-.312898 1.578851-.444332 1.02093-.279552.995573-.266224.970179-.252899 1.407568-.354377.906521-.21961.88099-.206305.85542-.193002.829811-.179707.804163-.166415 1.158069-.224712.739872-.133209.714089-.119935.688264-.106666.983894-.135132.623536-.073516.597577-.060266.571578-.04702.54554-.033778.519464-.020543c1.18163-.032496 2.149985.04306 2.902836.226379.432106.105218.942676.374439 1.514904.787797l.350602.265152c.29811.235109.610795.50526.935954.807968l.396044.378718.407212.409021.417575.438369.212421.229892.540843.605006.553567.646765c.149175.177874.299539.360003.450958.546228l.457286.570809.46281.594436.467525.61711c.078269.104688.156701.210281.235279.316759l.591813.814874.595715.846203c.079619.114834.1593.230452.239026.346837l.718306 1.067608.478884.733128.477954.749128.476217.764172.473675.778265.703979 1.191733.232515.403257.461206.814819.488628.885906c.172.316009.341139.631238.507358.945539l.489838.93997.471966.933519.453742.926186.219926.460067.425744.913531.406638.903991.196044.448142.377318.888028c2.57168 6.17611 3.674282 11.488916 2.763581 14.576414-.493534 1.673199-1.733203 3.727767-3.529298 5.956139l-.528147.641228c-1.176413 1.398796-2.559135 2.856623-4.103162 4.324238l-.723917.677876-.745841.678191c-.378238.338994-.764328.677703-1.157718 1.015522l-.796349.674269c-.537169.448483-1.08666.894664-1.647162 1.337111l-.848846.660688c-.428388.328765-.8626.655025-1.302085.978175l-.885834.641976c-.892534.63747-1.804681 1.260888-2.732014 1.865414-11.048043 7.202179-22.08211 10.531292-30.129242 8.287873-11.943912-3.329782-19.081238-10.764562-21.561914-22.440215-.143475-.675282-.807208-1.106398-1.482491-.962924-.675282.143475-1.106398.807208-.962923 1.482491 1.433281 6.745943 4.344164 12.217987 8.710454 16.393947l-.822815 1.285288c-1.034992 1.598973-2.128357 3.226372-3.243774 4.860527l-1.531279 2.230548-3.062701 4.437385-1.196097 1.748781-.876461 1.295959-.572037.855066-.836374 1.267286-.541218.833509-.526599.823518-.510669.812746-.49343.801193-.47488.788859-.455021.775742-.433853.761845-.411373.747165c-1.665403 3.081524-2.711304 5.760432-2.711304 7.782352l.004501.224453.012091.234569.019711.261472.02733.288374.034949.315277.092756.711263.123234.818873.1969 1.174919.191807 1.060997.222284 1.168608.39057 1.954683.298477 1.437636.50486 2.358223.473098 2.150142.856009 3.789963.977917 4.220406.673105 2.856338 1.176018 4.919876 1.816078 7.467663 1.850986 7.494981 1.309787 5.250378 2.590206 10.283803 2.512092 9.875637 2.783665 10.855646-.073096.020654-.153897.060419-.111034.059649-.147817.103998-.062777.054788-.553457.528112c-16.823603 15.921471-37.859494 23.962655-63.173286 24.134672h-1.636115c-25.041601-.170168-45.896803-8.041182-62.629129-23.623809l-.671954-.632533 3.089331-55.030095c27.473093-2.454941 53.074439-11.376118 76.800729-26.763049.324926-.214135.545427-.576414.563927-.99492.025394-.689815-.511665-1.271167-1.20148-1.298487l-5.657332-.233305-3.485547-.154183-3.38602-.158772-3.291506-.164027-3.202003-.169946-2.08742-.116915-3.063972-.181292-2.000041-.125094-1.967688-.128712-2.894119-.200279-1.893303-.138616-1.866149-.142922-1.840479-.147426-1.816295-.152127-1.793595-.157026-1.772382-.16212-1.752652-.167413-1.734409-.172903-2.570655-.270077-1.695297-.187489-1.682251-.193669-1.670692-.200045-1.660615-.206618-1.652026-.21339-2.465181-.333212-1.637049-.231179-1.633656-.23864-1.529793-.230677-1.529341-.23757-1.02679-.163666-1.020417-.166332-2.021682-.340709c-1.674082-.288412-3.321513-.588075-4.942136-.899226l-1.931869-.378909c-19.50965-3.908607-35.019917-9.54092-46.247127-17.324114-23.43018-16.242826-9.360047-58.835367 30.437182-109.7266767l1.213839-1.5446824 1.204878-1.5251828-.166742.2068731-.135284.1576228.830149-1.0068066.46936-.5845296.670778-.8496638 1.389024-1.7106758c1.871484-2.2953732 3.792845-4.6055778 5.763046-6.9290243 7.980125-9.410917 15.613562-17.790171 23.017541-25.1747489l.924311-.9178943.062709.011746c6.436395.96421 11.948189 3.2155103 15.44763 5.7730045.557372.4073432 1.339427.2857215 1.746771-.2716498.407343-.5573713.285721-1.339427-.27165-1.7467703-3.491383-2.5516046-8.7006-4.7780489-14.777087-5.92659 3.206664-3.1027996 6.372719-6.0168237 9.508754-8.7448747l1.174626-1.0143071 6.886755-.0368302 5.288472-.0492252 4.164592-.0569366 2.60011-.0461694 3.064352-.067596 2.311546-.0624323 1.65671-.0519394 2.623531-.0967685 1.982958-.0870108 1.424312-.0710971 1.820925-.102876 2.160577-.1420978 1.644689-.1249283 1.189331-.1005001 1.1548-.1065042 1.763143-.181069 1.002322-.1136268.957381-.116211.939995-.1216829.96546-.1330341 1.318245-.1951212c1.85082-.2849701 3.566966-.6106621 5.144058-.9799zm-12.346117-12.2204613-.012018.1001572c-.741512 5.330302-6.004889 8.7281611-15.756869 10.6380669l-.846606.1609594-.85512.1528243-.865418.1448752-.877501.1371119-.891367.1295343-.907019.1221426-.459936.0583574-.933841.1114035-.953953.1044763-.975849.097735-.999529.0911794-1.024994.0848098-1.052244.0786259-1.081276.0726278-1.680255.098102-1.161666.0584457-1.809204.0776997-1.894601.0662947-1.986022.0555166-2.440604.051984-2.519575.0383724-2.880291.0287629-2.950905.0163936-3.691932.0064109c-11.781872 0-25.665986 5.1439165-41.107711 14.2512954-10.964514 6.4667635-21.035091 13.8063588-32.391718 22.9696249-.537273.4335072-.621393 1.2204805-.187885 1.757754.433507.5372735 1.22048.6213927 1.757754.1878854 4.872515-3.9314621 9.504633-7.5232987 14.069337-10.850896l1.139872-.826438.085027.0580481 2.4854 1.5025315 3.983448 2.4293507 1.920016 1.1819908 2.426101 1.5059644 2.817254 1.7698019 2.081376 1.325618 1.927995 1.2453299 1.774508 1.1649592 1.230093.8209265.772043.5221254 1.311003.9017234.881898.6199674.795969.5715603.484322.3547316.485493.3622758-1.941864 2.5305317-.8219 1.0564928-.741062.9388602-.686059.8527234-.656891.7980822-.434481.5172522-.440654.5162975-.61451.7077645-.6878.7790263-1.368779 1.5249692-48.051078-.0009154-.673892-.0115693-.163809-.0056913-.326916-.0158525-.330635-.0228701-.339944-.0311571-.539599-.0650511-.387673-.057429-.416548-.0701594-.451012-.0841594-.753367-.155266-.862355-.193907-.990211-.2368325-1.110806-.2774079-1.76775-.4569881-3.881362-1.0356904-10.269885-2.7950816-1.551369-.4172776-1.57896-.4171761-1.519676-.3930159-2.182177-.5468793-1.399108-.3379267-1.361936-.3180152-.669004-.1519203-1.318027-.2904242c-.435428-.0939279-.867294-.185043-1.296651-.2735477l-1.24614-.2509221-1.202414-.2306348-.714003-.1313644c-11.377335-2.0577992-20.516359-1.9978716-27.886829.7854492-3.085314 1.1651111-7.856218 3.8018879-14.317335 7.9131295l-1.583123 1.0150092-1.648041 1.0716372-1.712973 1.1282738-.880841.5853784-1.810399 1.2132449-1.875367 1.2699031-1.940349 1.3265698-2.005346 1.3832452-2.070356 1.4399291-2.135381 1.4966217-2.20042 1.5533228-2.265474 1.6100325-2.33054 1.6667509-2.395623 1.723478-2.460718 1.780213-2.525828 1.836958-2.590953 1.89371-2.656091 1.950471-2.721243 2.007242-4.204058 3.117324-4.35073 3.245106-2.981996 2.234407-3.04722 2.29122-3.112457 2.348042-3.177709 2.404871-4.888943 3.713883-3.340901 2.546985-5.133797 3.927093-5.280774 4.055057-5.427798 4.18305-3.700237 2.859823-5.672946 4.396437-5.820098 4.524509-5.987639 4.66849-8.620532 6.743809-4.509924 3.537898-7.12275 5.600288-7.532098 5.93795c-.541874.427743-.634395 1.213773-.206652 1.755646.399227.505749 1.110561.620062 1.644195.285285l.111452-.078633 3.633115-2.86611 8.890585-6.9979 6.914706-5.426123 6.73885-5.273016 32.998784 18.394975-53.105 103.19-117.00808271-115.361525-.20795251-.212091c-1.83539206-1.93648-2.69074978-4.610586-2.31003375-7.26229 2.69174526-18.748109 10.44280987-33.793994 23.26356207-45.190897 3.6374785-3.23351 11.7122209-7.91642 24.2129772-14.042658l2.4747658-1.203744 1.9286022-.926458c.6532275-.312197 1.3168147-.627771 1.9907603-.946723l2.7510245-1.2938161 2.8614963-1.3298272 1.4721694-.6784149 3.0271699-1.383826 3.1375964-1.4198129 1.6102024-.7233986 3.303202-1.473775 1.6929951-.750374 3.4687669-1.527715 3.5791209-1.5636629 3.6894567-1.5996008 3.7997743-1.6355291 3.910074-1.6714475 6.0718826-2.574497 4.185744-1.7612008 4.295979-1.797085 4.406198-1.8329594 4.516397-1.868824 2.299519-.9478582 4.681663-1.9226027 4.791818-1.9584428 4.901954-1.9942732 5.012072-2.0300938 5.122173-2.0659046 5.232255-2.1017056 5.342318-2.1374969 5.452365-2.1732783 5.562392-2.20905 5.672402-2.244812 5.782393-2.280564 8.879783-3.4878598 9.127163-3.568247 9.503729-3.6987959 6.65507-2.5806851 6.913679-2.6732362 7.182607-2.7693085 7.462269-2.8690404 7.753101-2.9725759 8.055554-3.0800647 8.370097-3.1916624.662625-.245439c3.987509-1.4357842 8.183617-2.2079102 12.421037-2.2852094l.70659-.0064443zm24.583 0-.02364.1895911c-.648709 4.7420621-4.665702 7.7654476-13.027639 9.659224l-.880567.1919025c-.298715.0626405-.602637.1239619-.911806.1839884l-.943284.1762192-.483523.0852415-.990953.1648371-.499971.0784742-1.085908.1617132c-2.484501.3574944-5.116152.6508281-8.102509.8906216l-1.523698.1154841-1.588581.1068559-1.559569.0929524-1.47614.0783034-1.472843.0697946-1.476912.0625457c8.413037-2.2814739 13.239846-6.1203724 13.951688-11.9958096l.033663-.3111166zm-15.975573-11.99169297.195618 1.71865271c.152607 1.30866809.31327 2.61088694.481987 3.90665576l.259117 1.9388157.270742 1.9273717h-24.6l1.171859-.6466799c1.558805-.8497099 3.117104-1.6529407 4.676216-2.4101087 5.56202-2.70114297 11.083907-4.77186197 16.575642-6.19103308z" fill="#e1e1ff"/><g transform="translate(101.575802 182.298938)"><use fill="#fff" xlink:href="#a"/><g mask="url(#b)"><path d="m.5 18v-2.5h799.5v2.5zm0 70v-2.5h799.5v2.5zm0 70v-2.5h799.5v2.5zm0 70v-2.5h799.5v2.5zm0 70v-2.5h799.5v2.5zm0 68v-2.5h799.5v2.5zm0 70v-2.5h799.5v2.5zm0 70v-2.5h799.5v2.5zm0 70v-2.5h799.5v2.5zm0 70v-2.5h799.5v2.5zm0 70v-2.5h799.5v2.5zm0 70v-2.5h799.5v2.5z" fill="#121216" transform="translate(-89.510887 -269.598938)"/></g></g><path d="m464.576109 113.499197c13.807118 0 25 11.192881 25 25s-11.192882 25-25 25c-13.807119 0-25-11.192881-25-25s11.192881-25 25-25z" fill="#fff"/><path d="m458.908949 8.73437597c6.011066-2.91921812 11.986462-5.12319497 17.933669-6.58695625l1.546666-.36461894c.173573-.03931455.308684-.0689354.532882-.11728055 19.416623-4.21885852 38.541938-.49909159 57.636667 12.03146407l17.771523 11.8271383 3.449921 2.3210327 2.265072 1.5374596 1.558956 1.0660836 1.664926 1.1469987 1.602318 1.1133469 1.548168 1.0857595 1.502478 1.0642365.736749.5259424 1.116612.8025413.800839.5799489 1.57695 1.1538957c.520195.3833531 1.034961.7654644 1.544378 1.1464439l1.512282 1.1396536c16.959133 12.8800955 27.826616 24.5793727 35.730927 39.4308327 5.885897 11.0590506 9.966362 23.8498354 12.318369 39.1828954l.24973 1.682822.236039 1.703225.222369 1.723864c.395161 3.179477.72152 6.464182.979692 9.860599l.134063 1.863709c.381923 5.624597.581563 11.551482.60162 17.809066l-.000814 159.288521 183.689296 20.471412c38.988934 4.221963 63.414728 40.386533 73.148641 108.096916.101935.709069-.409787 1.348245-1.104902 1.420989l-.132378.00688h-273.283548l-1.225948.416187c-27.971121 9.435902-52.977786 15.267442-75.024976 17.49112l-.506076.049693-1.402803 2.227362 19.209723 17.295134c5.609176 5.050526 6.561353 13.137392 2.126745 18.062523-4.434607 4.925131-12.576703 4.823478-18.18588-.227047l-3.119714-2.809168c-.146603.293847-.408353.533422-.762179.635829l-.124039.029455c-13.779735 2.5832-25.341013 2.168119-34.678413-1.277126-1.477328-.545093-2.657758-1.452175-3.544085-2.722691-11.003682-1.800972-18.072816-6.157774-21.033816-13.017407-9.456973-3.512351-15.821719-7.900175-19.010397-13.195668l.216418.111595c-8.123406-4.127214-13.981458-9.184262-17.544465-15.182582-.87972-1.481007-1.310975-3.974572-1.337854-7.190677l-.002001-.589688-189.430396-.1c-.044539-.000023-.088532-.002376-.131862-.006942l-.135766-.004507c-.537832-.046959-.993028-.439712-1.110689-.976045l-.021044-.126226-1.3175-11.422192c-.051133-.020657-.101346-.044906-.150291-.072805l-.114671-.073858-114.646063-82.889213c-.093573-.021454-.186143-.054103-.275952-.09854-.222176-.109931-.397248-.277061-.516224-.474783l-23.355481-16.887671c-.464948-.336164-.637052-.940935-.432891-1.465491l.053831-.119468 20.45165-39.7413-117.56428284-115.91128c-2.54351462-2.507732-3.74503222-6.074312-3.23741084-9.609918 2.77358006-19.318092 10.80277668-34.90387 24.07722148-46.704085 7.3572173-6.540141 31.8267211-18.611597 73.4947419-36.2609144l4.8841783-2.0612162 4.5263-1.8974367c1.019587-.4261106 2.048337-.8551934 3.08625-1.2872491l5.265931-2.1850548 2.690245-1.1111126 5.495071-2.2594057 5.647868-2.3089927 5.800694-2.3585957 2.957666-1.197904 7.561374-3.0490435 9.389026-3.7612513 8.087069-3.2197449 10.020026-3.9661831 6.871301-2.7062615 7.024363-2.7559916 7.177454-2.8057376 7.330574-2.8554995 7.483725-2.9052773 7.636904-2.9550709 7.790113-3.0048805 7.943351-3.0547059 8.096619-3.1045472 8.249916-3.1544045 8.403243-3.2042776c4.475275-1.7042202 9.211467-2.6155352 13.996117-2.6948606l.683828-.0056682 177.405111-.0004493c3.240419-1.9636413 6.475973-3.7309682 9.718362-5.30560413zm320.785659 329.32779803-1.676978.41397-13.438185 3.433904-8.104856 2.083936-10.701168 2.765615-8.951087 2.325146-13.648132 3.564999-9.246422 2.428185-14.091133 3.719556-11.945652 3.170469-12.130235 3.234867-14.799931 3.966847-10.014285 2.696083-7.588238 2.04911-15.375823 4.16777-13.016223 3.543979-7.898332 2.157299-13.311551 3.647016-10.782136 2.96398c-.18844.051877-.38642.058843-.57804.020338l-4.189686-.835933-4.837143-.949749-4.739888-.913761-3.105866-.58919-3.062598-.573206-3.019312-.557228-2.976009-.541254-4.382783-.78194-4.285254-.746025-2.802624-.477404c-.926977-.156477-1.846723-.310294-2.759234-.461454l-3.052254-.500075-1.322247-.213106-3.903198-.616006-2.549159-.39125-2.506762-.375718-2.464347-.36019-2.421916-.344666-2.379468-.329148-2.337003-.313634-3.425847-.441371-2.230768-.274867-2.188245-.259368-1.078171-.123873-2.124429-.236128-2.081864-.220639c-.686858-.070966-1.36662-.139351-2.039282-.205157l-2.489197-.234678-2.422604-.2105-1.890114-.150999-2.302655-.167002-2.235971-.142849-1.740742-.096895-1.698026-.081446c-.558888-.024574-1.110654-.046575-1.655294-.066002l-1.612546-.050562-1.56978-.035128c-12.387131-.21929-20.667156 1.042772-24.801555 3.776047-3.320084 2.194926-6.613291 6.061244-9.700432 11.138218l-.523484.875834-.492811.852134-.398825.709571c-.224585.404655-.447877.815616-.669801 1.232691-.303977.571284-.605358 1.153978-.903976 1.747636l-.697252 1.416453-.497882 1.049401-.292046.630732-.317788.699396-.436226.982793-.120426.276046c-.201492.463606-.401349.932206-.599482 1.405576l-.295896.713606c-.601963 1.465417-1.187313 2.974607-1.754066 4.522468l-.206504.567975c-.199206.551786-.396047 1.108347-.590433 1.669458l-.289729.845051c-.202031.595431-.401294 1.19578-.597686 1.80078l-.515925 1.621264-.298116.967246-.464589 1.557214-.29798 1.034238-.288497 1.030273-.278942 1.025587-.269312 1.020183-.25961 1.014057-.249835 1.007211-.239987.999645-.230065.991358-.22007.982351-.210001.972625-.199861.962177-.189646.951009-.179358.939121-.168997.926513-.233909 1.364552-.210185 1.332132-.126822.868876-.116095.852666-.129922 1.04194-.112904 1.014079-.077975.790259-.096208 1.148692-.050196.74028-.038957.719027-.027645.697055c-.025625.800134-.028004 1.553937-.006614 2.256261l.024167.589265.035883.563331.022357.271716.053592.523079c.158743 1.358218.444399 2.420597.863213 3.12567 2.851146 4.799901 7.342167 8.995562 13.492195 12.579612-.235396-.776769-.412019-1.569524-.529475-2.379242-.221554-1.527344-.150656-3.523848.212919-5.992952l.124542-.795431.144001-.826874.163463-.858342.089029-.440979.192657-.905588.103627-.464615.221855-.952889.241321-.984453.127962-.50407.341198-1.294744.371623-1.344167.319206-1.110949.338681-1.142632.54454-1.77341.387376-1.221949.511613-1.572113.542055-1.621798.455564-1.333243.47505-1.365096.494538-1.396973.514026-1.428874.533518-1.460799.553009-1.492747.866066-2.299079.601748-1.572726.621245-1.604758.640744-1.636817.660246-1.668897 1.026936-2.563552.709004-1.749206 1.100083-2.684128 1.143977-2.756581.787039-1.878014 1.217147-2.877519 1.261056-2.950189 1.30497-3.022941.894379-2.055752c.276109-.632737 1.012873-.921841 1.64561-.645732.632736.276109.92184 1.012873.645731 1.64561l-1.312941 3.022557-1.232633 2.864422-1.157147 2.714949-1.086199 2.573649-1.050511 2.514647-.680512 1.643622-.991024 2.416173-.640851 1.577915-.624983 1.551601-.609116 1.525268-.883918 2.238488-.848208 2.179136-.812494 2.119722-.776776 2.060247-.498006 1.340425-.482127 1.313946-.466249 1.287449-.450369 1.260932-.645775 1.841641-.610039 1.781878-.386837 1.154686-.550468 1.682134-.175546.547397-.339175 1.074809-.478969 1.562215-.299448 1.008119-.419374 1.462094-.259715.941314-.24382.91456-.227922.887788-.212025.860998-.196125.834189-.180225.807362-.164324.780516-.148421.753653-.132516.726771-.060294.353299-.108659.686414-.048364.33311-.084798.646015-.068889.61906-.052979.592087-.037068.565095-.021156.538085c-.019798.786861.014111 1.482501.101747 2.086642.967182 6.667546 6.820633 12.233502 17.739042 16.629505-.385389-1.632984-.579464-3.382046-.579464-5.246704 0-1.031262.054283-2.136394.162845-3.315513l.080416-.797042c.029486-.269335.061652-.542325.096499-.818971l.11258-.840908.062322-.428683.136703-.873828.074382-.445147.160826-.906765.176907-.928733.094484-.472607.201028-.961698.106544-.489094.225149-.994681.241229-1.016679.391993-1.566282.281428-1.071708.297507-1.093732.313586-1.115765.500526-1.714974.353783-1.170879.36986-1.192937.385938-1.215005.402015-1.237078.418093-1.25916.657283-1.930161.458285-1.314398.71757-2.013053.498475-1.369684.514551-1.391811.801967-2.129223.838136-2.179052.578851-1.480397.594925-1.502563.610999-1.524737.627073-1.546917.643147-1.569105.994857-2.395278 1.031022-2.445245 1.067185-2.495238.731546-1.691278 1.127455-2.578616 1.163616-2.628677.795832-1.780275c.282635-.629848 1.022349-.91132 1.652197-.628685.629849.282635.91132 1.022349.628685 1.652197l-.787364 1.761323-.756178 1.704676-1.083838 2.467363-.690132 1.586918-.676042 1.567345-.661953 1.547765-.647863 1.52818-.945379 2.255532-.913679 2.211428-.881981 2.167303-.850284 2.123156-.549246 1.390901-.797455 2.049531-.514028 1.341797-.499941 1.322145-.7235 1.946356-.464725 1.272986-.450639 1.253311-.436553 1.23363-.422468 1.213943-.408382 1.194249-.394297 1.17455-.380212 1.154842-.366127 1.13513-.352043 1.115411-.501656 1.636129-.316833 1.066085-.302748 1.046344-.288665 1.026596-.274582 1.006842-.260499.987082-.246415.967315-.343219 1.413897-.311533 1.369385-.190087.888185-.176004.868386-.161923.848582-.147841.82877-.165 1.008094-.142999.977117-.051039.38217-.091519.749463c-.028159.246514-.053971.489721-.077437.729619l-.063358.709771-.049278.689915-.035198.670052c-.004693.11002-.008799.219213-.012319.327577l-.014079.640248-.00176.31267c0 2.460831.377643 4.689442 1.138708 6.687619.079899.125713.135831.265373.165815.411627 2.412335 5.830784 8.201365 9.636079 17.515695 11.462966-.949885-3.119019-.938613-7.435632.01712-12.958437l.17846-.987135.198047-1.012188c.173195-.853932.366774-1.73397.580681-2.640144l.266444-1.099954.285941-1.125054.38481-1.441631.415202-1.480885.354015-1.212986.373421-1.238133.392804-1.263291c.067081-.212645.13497-.42634.203664-.641083l.421842-1.301046.441175-1.32623.697967-2.036588.489418-1.389236.508679-1.414456.527921-1.439687.547142-1.464929.566342-1.49018.585522-1.515443.604682-1.540716.623821-1.566.971573-2.396428.67158-1.629255.690648-1.654574.709696-1.679905.728723-1.705246.747729-1.730598.766716-1.755961.785682-1.781333.399947-.900184c.280859-.630642 1.019777-.914197 1.650419-.633338s.914197 1.019776.633338 1.650419c-.334416.750898-.663712 1.49497-.987896 2.232212l-.957225 2.191232-.9266 2.150229c-.303767.709907-.602437 1.412975-.896018 2.109203l-.865482 2.068152c-.141705.341271-.282139.680829-.421304 1.018676l-.819763 2.006534c-.268181.661995-.531292 1.317139-.78934 1.965427l-.758961 1.924295c-.123964.317287-.246665.632859-.368103.946716l-.713478 1.862554c-.116389.306994-.231518.612272-.345386.915833l-.668097 1.800761-.637898 1.759537-.458633 1.292584c-7.352598 20.922681-7.925513 32.556778-2.091261 34.709457 8.186487 3.02059 18.287541 3.592989 30.307425 1.692124l.515732-.083648-11.660045-10.396708c-.444331-.396179-.543459-1.044859-.254516-1.551406l.073587-.114192.903467-1.25718.92011-1.296503.974566-1.390076.99256-1.432601 1.081145-1.578775.86621-1.277994c.145431-.215513.291395-.432283.43789-.650309l2.001547-3.006934.651704-.99067 1.322938-2.027528 1.348973-2.089105 1.321137-2.066036 1.474397-2.328354 1.001443-1.593239c.206164-.329124.553594-.543726.940189-.580742 22.481261-2.152544 48.150019-8.138567 77.00077-17.961937.086489-.029449.175815-.049282.266362-.059232l.136535-.007479h272.040031l-.155749-1.057638c-12.171625-80.711118-45.420989-114.177774-99.984752-101.129385zm-357.555858 60.192539c-2.589844 2.1771-5.28179 4.179037-8.059451 6.004953l7.173701 36.090334 10.797668.006041.084332.003959.021209-.338505c.433534-6.722034 2.179621-15.553641 4.965806-24.702593l.408932-1.32158c.154062-.490075.309971-.977383.467688-1.4618zm-10.321317 7.44147c-9.955145 6.105327-20.921602 10.018231-32.180369 11.70103l9.162936 22.935787 29.904.016zm-211.406433-208.777183-73.508 148.561 112.617 81.424-3.088014-26.800071c-.079045-.685816.41284-1.305858 1.098655-1.384904.642952-.074105 1.228096.353584 1.363859.97243l.021045.126225 4.660104 40.439008 142.531351.075312-9.025548-22.591688c-23.759764 2.829878-48.571997-4.214335-67.750827-21.483031-35.296769-31.781354-38.146577-86.158918-6.365223-121.455687 4.380573-4.865119 9.190438-9.113798 14.320457-12.740317zm136.990915 76.354835c-7.201507 3.590676-13.862894 8.567971-19.573616 14.910371-24.390342 27.088218-22.20328 68.819837 4.884938 93.210178 13.273228 11.951268 30.062335 17.5213 46.604357 16.907308l-8.523324-21.335429c-.088413-.221326-.111351-.46234-.067673-.69466l.034209-.138121 8.388303-27.147285-17.301581-16.07965c-.180473-.167728-.306534-.384239-.363976-.621624l-.026117-.144712-6.580435-54.699211zm10.174085 5.672165 6.308109 52.441197 17.54296 16.303182c.316459.29411.456177.727937.377634 1.146101l-.034322.138595-8.491272 27.474122 8.669456 21.702522c12.711209-.977916 25.157429-5.617407 35.619846-13.828394l-16.082411-80.903325zm173.647584 27.364834c-17.058558 15.030635-38.153229 22.549705-63.225335 22.549705-1.752759 0-3.48608-.036747-5.199942-.110239.753636 17.917349-4.064445 36.079796-14.599633 51.668269l10.083854 9.078637c3.160589-5.057686 6.557752-8.950295 10.051121-11.25978 1.026632-.678712 2.26885-1.274864 3.727128-1.788581l.594835-.20109c.909542-.295042 1.896887-.560413 2.96214-.79614l.721711-.15276c.244418-.049456.492685-.097449.744801-.143978l.767899-.135199.392612-.064308.802556-.122032.409946-.057725.837229-.10887 1.079056-.123751 1.1152-.110047.918192-.078173.467776-.035799.952917-.065025 1.223711-.068956 1.259908-.055266 1.033998-.034359 1.057178-.0256 1.080366-.016845 1.103561-.008091 1.126762.000661 1.733661.017399 1.785902.037081 1.219635.035653 1.24287.044396 1.266112.053138 1.289361.061878 1.312615.070616 2.012542.122304 2.064905.141955 1.405704.10555 1.428993.11428 1.452289.123008 1.475591.131733 2.261689.214517zm48.081416 2.674166-9.445102 43.046488c-.052038.237151-.171747.452947-.34314.622005l-.108909.095623-20.29174 15.831081 2.620891 11.783803 3.626663.605914 2.80928.479079 4.294963.748567 2.917363.519005 2.960626.534967 3.003906.550926 3.047202.566879 3.090516.582829 3.133846.598774 3.177193.614714 4.847102.95195 3.950449.787593 16.619899-4.563914 12.197154-3.336363 15.558195-4.238185 9.208845-2.498922 9.114291-2.46593 9.019737-2.432939 8.925184-2.399948 11.753162-3.14861 11.585067-3.089959 8.57849-2.278979v-34.439448zm-174.731036-2.849969 15.184223 76.392318c2.154996-1.846277 4.215518-3.85253 6.165229-6.017903 12.902732-14.329936 18.367739-32.757849 16.643179-50.548593-14.335494-3.479148-27.004528-10.088399-37.992631-19.825822zm129.781036-2.160031-17.18 71.598 2.1825.235021 1.100862.122749 2.234855.257865 2.279043.27435 2.323249.29083 3.567798.467135 2.433841.332011 2.478109.348475 1.25566.18041 3.187601.469024 3.256844.49473 2.655354.414285 2.948284.470115-2.574683-11.577915c-.09428-.423866.038558-.862507.343378-1.162349l.1079-.094596 20.558514-16.040943 9.292891-42.347197zm173.3 19.316.001139 33.497785 9.583459-2.533814 12.588752-3.312405-.00135-25.180566zm24.672 2.75.000773 24.246142 5.977391-1.564364 5.927028-1.54679 8.796109-2.287235 5.801118-1.502858 11.451146-2.952996 8.456154-2.168618 8.664299-2.210902c4.047965-1.030237 7.984678-1.815155 11.810051-2.355018l.827931-.110361zm-544.922-141.946-74.225891 144.232197 21.670891 15.667803 73.375-148.295zm303.879226-155.3343416c-1.577092.3692379-3.293238.6949299-5.144058.9799l-1.318245.1951212-.96546.1330341-.939995.1216829-.957381.116211-1.002322.1136268-1.391529.1448163-1.507213.1410597-1.168959.0989958-1.615454.1232094-1.257935.0860098-1.300839.0806903-2.271185.1230637-2.411574.1093806-2.039246.0781117-2.697676.0864726-3.472684.0882906-2.468437.0500272-3.949596.0626657-5.762712.0622904-3.911719.0277157-4.510045.0211814c-3.519782 3.0168017-7.075883 6.2685322-10.68338 9.7591818 6.076487 1.1485411 11.285704 3.3749854 14.777087 5.92659.557371.4073433.678993 1.189399.27165 1.7467703-.407344.5573713-1.189399.678993-1.746771.2716498-3.499441-2.5574942-9.011235-4.8087945-15.44763-5.7730045l-.062709-.011746c-7.692773 7.6059922-15.629221 16.2896046-23.941852 26.0926432-1.970201 2.3234465-3.891562 4.6336511-5.763046 6.9290243l-1.389024 1.7106758-.670778.8496638-.46936.5845296-.830149 1.0068066.135284-.1576228.151716-.1883772-1.189852 1.5066869c-40.722997 51.5728481-55.317869 94.8644641-31.651021 111.2713591 11.22721 7.783194 26.737477 13.415507 46.247127 17.324114l1.931869.378909c1.620623.311151 3.268054.610814 4.942136.899226l2.021682.340709 1.020417.166332 1.02679.163666 1.529341.23757 1.529793.230677 1.554009.227189 1.557013.22043 1.561296.213839 1.566857.207418 1.573696.201166 1.581815.195085 1.591212.189173 2.407232.273046 2.435568.260699 2.468217.248925 1.665747.159691 1.683454.154883 1.702441.150243 2.592055.217039 2.641965.207554 1.791169.133385 2.734736.193022 2.796154.185066 1.900353.119241 2.908103.173079 2.981026.16665 4.095596.213191 3.167962.153878 4.360504.19824 3.37839.144224 3.475764.141041c.689815.02732 1.226874.608672 1.20148 1.298487-.0185.418506-.239001.780785-.563927.99492-23.72629 15.386931-49.327636 24.308108-76.800729 26.763049l-.257461 4.589345c9.936977 3.671103 19.357757 9.25243 27.710111 16.772924 17.219298 15.504326 26.716503 36.386351 28.238025 57.807274 1.490066.067698 2.997826.106543 4.521077.116894h.818057c25.678978 0 46.986842-8.042002 63.991344-24.134672l.553457-.528112.062777-.054788.147817-.103998.111034-.059649.153897-.060419.073096-.020654-2.783665-10.855646-2.512092-9.875637-2.81413-11.178731-1.914045-7.696778-1.174758-4.773605-1.610228-6.624039-1.427938-5.980395-1.116245-4.775564-.742663-3.247932-.556997-2.488089-.405089-1.84744-.369081-1.7203-.333073-1.59316-.365705-1.812661-.252055-1.307097-.216048-1.179958-.180039-1.052817-.144032-.925679-.108024-.798539-.057387-.515469-.027006-.303915-.018004-.27213-.009846-.295465-.000281-.053134c0-1.568275.629226-3.531801 1.688708-5.771881l.330553-.680202.355175-.696083.378602-.711251.197713-.361092.411506-.732669c.070321-.123248.141494-.247052.213493-.3714l.441723-.752485.460374-.764806.477834-.776413.746873-1.184826.516257-.802317.798912-1.220344.824763-1.238449 1.132934-1.675277 1.162178-1.697493 3.733473-5.411835c1.681074-2.447962 3.331233-4.891804 4.828814-7.258946-4.36629-4.17596-7.277173-9.648004-8.710454-16.393947-.143475-.675283.287641-1.339016.962923-1.482491.675283-.143474 1.339016.287642 1.482491.962924 2.480676 11.675653 9.618002 19.110433 21.561914 22.440215 8.047132 2.243419 19.081199-1.085694 30.129242-8.287873.927333-.604526 1.83948-1.227944 2.732014-1.865414l.885834-.641976c.439485-.32315.873697-.64941 1.302085-.978175l.848846-.660688c.560502-.442447 1.109993-.888628 1.647162-1.337111l.796349-.674269c.39339-.337819.77948-.676528 1.157718-1.015522l.745841-.678191.723917-.677876c1.544027-1.467615 2.926749-2.925442 4.103162-4.324238l.528147-.641228c1.796095-2.228372 3.035764-4.28294 3.529298-5.956139.910701-3.087498-.191901-8.400304-2.763581-14.576414l-.377318-.888028-.196044-.448142-.406638-.903991-.425744-.913531-.219926-.460067-.453742-.926186-.471966-.933519-.489838-.93997c-.166219-.314301-.335358-.62953-.507358-.945539l-.488628-.885906-.461206-.814819-.232515-.403257-.586052-.995077-.591602-.974921-.476217-.764172-.477954-.749128-.478884-.733128-.479008-.716175-.239298-.351433-.596835-.858214-.593563-.827629c-.078854-.108229-.157578-.215592-.236156-.322071l-.469581-.628089-.465268-.605892-.460149-.582741c-.22866-.285425-.455098-.56181-.67886-.82862l-.443821-.520693-.43588-.494206c-.143879-.160214-.286301-.315855-.42713-.466764l-.417575-.438369-.407212-.409021-.396044-.378718c-.325159-.302708-.637844-.572859-.935954-.807968l-.350602-.265152c-.572228-.413358-1.082798-.682579-1.514904-.787797-.689629-.167924-1.560087-.245425-2.609661-.23228l-.49713.012504-.52253.025382-.547892.038264-.573216.051151-.598504.064044c-.203711.023497-.411631.049143-.623753.07694l-.648965.089842-.67414.10275-1.058332.178334-.736914.135037-.761957.14796-.786965.160889-.811934.173822-.836865.186761-1.301964.30441-.899032.219127-.923832.232082-1.432169.372425-.985672.264491-1.524752.421061-1.047276.29693-1.071853.309915-1.096393.322903-1.120894.335898-1.727201.52822-1.782119.557483-1.836912.586764-1.254986.40745c-.442262.144485-.928173.031381-1.26117-.293556-27.828413-27.154925-46.023362-62.057001-54.587352-104.6752966zm-85.763556 244.1072506-1.641561 29.236288.127796.12167c10.956196 10.368692 23.698878 17.395251 38.246167 21.082751-2.048762-14.89126-9.170175-29.164507-21.214595-40.009351-4.775852-4.300197-10.006884-7.774254-15.517807-10.431358zm-55.33188-.902844 51.27321 28.579935 1.616752-28.793353c-16.921558-7.319644-36.172961-7.16353-52.889962.213418zm128.749319-255.4248679h-197.152633c-4.477132 0-8.91859.7761037-13.127627 2.2916537l-.662625.245439-8.370097 3.1916624-8.055554 3.0800647-7.753101 2.9725759-7.462269 2.8690404-7.182607 2.7693085-6.913679 2.6732362-6.65507 2.5806851-9.503729 3.6987959-9.127163 3.568247-8.879783 3.4878598-5.782393 2.280564-5.672402 2.244812-5.562392 2.20905-5.452365 2.1732783-5.342318 2.1374969-5.232255 2.1017056-5.122173 2.0659046-5.012072 2.0300938-4.901954 1.9942732-4.791818 1.9584428-4.681663 1.9226027-4.571491 1.8867526-4.4613 1.850893-4.351091 1.8150234-5.283854 2.2183229-5.11159 2.1622424-3.9652169 1.689403-1.9412507.8312346-3.7997743 1.6355291-3.6894567 1.5996008-3.5791209 1.5636629-3.4687669 1.527715c-.5689307.251623-1.1332625.5017477-1.6929951.750374l-3.303202 1.473775-1.6102024.7233986-3.1375964 1.4198129-3.0271699 1.383826c-.4953251.2276382-.9860484.4537766-1.4721694.6784149l-2.8614963 1.3298272-2.7510245 1.2938161-1.9907603.946723c-.6532276.312197-1.2960954.621017-1.9286022.926458l-2.4747658 1.203744-1.8725636.923315c-11.4378805 5.675404-18.8878917 10.050249-22.3404136 13.119343-12.8207522 11.396903-20.57181681 26.442788-23.26356207 45.190897-.38071603 2.651704.47464169 5.32581 2.31003375 7.26229l.20795251.212091 117.00808271 115.361525 53.105-103.19-32.998784-18.394975-6.73885 5.273016-6.914706 5.426123-8.890585 6.9979-3.633115 2.86611c-.541874.427743-1.327904.335222-1.755647-.206652-.427743-.541873-.335222-1.327903.206652-1.755646l7.532098-5.93795 7.12275-5.600288 4.509924-3.537898 8.620532-6.743809 6.027324-4.699386 5.703006-4.433527 7.384266-5.72012 3.597988-2.778114 7.007754-5.392378 5.091172-3.900945 4.9501-3.778114 3.221716-2.450518 3.15905-2.395946 4.621107-3.491615 4.480185-3.368876 2.908522-2.177742 4.245415-3.164371 2.752051-2.04143 2.689485-1.98692 2.626934-1.932417 2.564395-1.877923 2.50187-1.823437 2.439358-1.768958 2.37686-1.714489 2.314375-1.660026 3.354432-2.387941 2.15822-1.5239068 2.095782-1.4694731 2.033357-1.4150474 1.970945-1.3606299 1.908547-1.3062205 1.846162-1.2518192 2.652301-1.7757439 2.51201-1.6533863 1.596755-1.0342946.775008-.4967615 1.503284-.9527563c1.226777-.7713172 2.38866-1.486021 3.485684-2.1441326l1.285298-.762571 1.223048-.7082505.921599-.52078c2.556252-1.4275914 4.645474-2.4476058 6.268339-3.0604505 7.37047-2.7833208 16.509494-2.8432484 27.886829-.7854492l.714003.1313644 1.202414.2306348 1.514824.3065793 1.537646.3287611 1.253532.2803219 1.280114.2968192 1.312016.314339 1.349243.3328815 1.39179.3524466 1.439661.3730343 1.492853.3946446 1.551369.4172776 10.269885 2.7950816 3.881362 1.0356904 1.76775.4569881.749063.1881841 1.037021.2520932.615659.1431567.561629.1247134.51319.1075396.47034.0916354.433082.0770007.591988.0908381.364389.0459681.515154.0502401.330635.0228701.326916.0158525.495628.0133979.342073.0038627 48.051078.0009154 1.368779-1.5249692.896546-1.018017.405764-.4687738.783799-.9241125.585177-.7076486.811855-1.0058421.888201-1.1260734 1.571403-2.0315216 1.082476-1.4150418-.485493-.3622758-.484322-.3547316-.795969-.5715603-.881898-.6199674-1.311003-.9017234-1.133301-.7645225-1.214241-.8069278-.85444-.5614947-2.293329-1.4860684-1.483752-.9480503-2.652379-1.673998-2.876546-1.791264-3.100525-1.9083837-3.324321-2.0253574-2.4854-1.5025315-.085027-.0580481c-4.934226 3.5577544-9.930652 7.41825-15.209209 11.677334-.537274.4335073-1.324247.3493881-1.757754-.1878854-.433508-.5372735-.349388-1.3242468.187885-1.757754 11.356627-9.1632661 21.427204-16.5028614 32.391718-22.9696249 15.441725-9.1073789 29.325839-14.2512954 41.107711-14.2512954l3.691932-.0064109 2.950905-.0163936 2.880291-.0287629 2.159533-.0320159 2.117282-.0421216 2.017834-.0520634 1.924405-.0626323 1.234007-.0479362 1.782076-.0816408 1.704707-.0938821 1.096462-.0696985 1.066537-.0756037 1.038395-.0816946 1.012039-.0879714 1.472542-.1441325.953953-.1044763.933841-.1114035.915514-.1185164 1.121336-.1584312 1.098973-.1701986.865418-.1448752.85512-.1528243.846606-.1609594c9.75198-1.9099058 15.015357-5.3077649 15.756869-10.6380669zm-205.520935 60.6801103c-2.782575 1.0507878-7.029855 3.3723805-12.738166 6.962553l-1.522265.9653421c-.259234.165686-.521229.3337698-.785985.504251l-2.457341 1.5990593-1.721033 1.1379506-1.787259 1.1954692-1.853472 1.2529791-1.91967 1.31048-3.003595 2.0735154-3.152459 2.2028433-3.301273 2.3321417-2.2835 1.6265789-2.349604 1.684023-2.415693 1.741458-2.481768 1.798885-3.84651 2.805982-3.995097 2.935142-2.745922 2.028502-4.242633 3.150344-4.391089 3.279424-3.009845 2.25798-4.638408 3.494494-4.786734 3.623495-4.93501 3.752468-3.37236 2.573283-5.18203 3.967356-3.536994 2.716514-5.428914 4.182162-5.576979 4.311006-5.724995 4.439821-5.872963 4.568606-3.997488 3.11727 32.737705 18.249004c.135435.018978.27004.060677.398517.126797.155534.080043.287165.188193.391881.315054l22.089084 12.311902c.172653.005776.346878.047626.511794.129225.203699.10079.367803.249659.485382.426105l118.620054 66.115467c22.19046-14.621802 49.867505-17.996979 74.660421-9.686842l2.116813-37.712531c-19.775093-3.968912-35.553534-9.707452-47.085969-17.702241-14.42777-10.001962-16.063927-28.493275-6.519832-53.127903 6.514771-16.815525 18.170982-36.225212 33.497685-56.3840688l-45.539628-.0002088c-1.296082 0-2.776569-.1417617-4.510824-.4262703l-.818696-.1414512c-.139537-.0252657-.280639-.0513769-.423337-.0783342l-.875595-.1718991-.915421-.1922248-.956764-.2125718-1.2564-.2943608-1.480534-.3649565-1.593516-.4098342-1.763027-.4688763-1.476585-.4012495-8.085631-2.2341917-1.502286-.4072115-1.510442-.4030645-1.612506-.4219081c-.561843-.1453146-1.111885-.2857073-1.65159-.4214605l-1.589562-.3936245-1.536315-.3674844c-.756309-.1774898-1.495942-.3458131-2.223838-.5059238l-1.441607-.3095538c-.476294-.099723-.948835-.1960786-1.419086-.2893495l-1.405347-.270841c-11.30034-2.1138877-20.250369-2.110776-27.257944.535504zm301.565041 68.6656106c.077317.686013-.416127 1.304814-1.10214 1.382132-2.881348.324745-5.710632 1.009327-8.488519 2.055279 1.693643 5.408747 2.25556 10.048404 1.663804 13.929574-.104055.682468-.741658 1.151366-1.424127 1.047311s-1.151366-.741659-1.047311-1.424128c.520447-3.413478.024296-7.613192-1.510209-12.589392-4.989783 2.26424-9.809668 5.720465-14.464932 10.377093-.488084.488227-1.27954.488343-1.767767.000259s-.488342-1.27954-.000259-1.767767c8.318405-8.320842 17.244777-13.040154 26.759328-14.112501.686013-.077317 1.304814.416127 1.382132 1.10214zm-179.693835-21.207255.127397.012069c7.010188 1.022965 12.668089 2.645743 16.979671 4.884119.612707.318089.851542 1.072649.533453 1.685357-.31809.612707-1.07265.851542-1.685357.533452-4.035634-2.095115-9.433874-3.643419-16.188757-4.629128-.683121-.099685-1.156089-.734274-1.056405-1.417395.093455-.640426.65704-1.096148 1.289998-1.068474zm45.665684-63.030669c.565165.3094398.796328.991809.555081 1.5737374l-.058977.1229891-12.924239 23.6049824c-.200703.3665665-.571318.6085831-.987647.6449477l-2.132275.1909663-1.551508.1453313-2.443595.2413412-2.263345.2394864-2.080285.2367568-1.159131.1403802-1.440371.1848287-1.318894.1817386-1.195977.1782006-1.071621.1742148-.721241.1277761-.649874.1250934-.5779.1222216-.34498.0797925-.456593.1170157-.263547.0761469-.230659.0745908-.19759.0729786-.164343.0713105c-.098438.0469719-.174592.0927944-.22822.1373928-.082774.0688368-.184888.2269041-.29347.4645008l-.110262.2637471c-.111465.2895383-.225108.6553723-.328059 1.0878007-.283798 1.1920408-.466017 2.7621512-.518849 4.5740104-.120615 4.1365046.427093 9.0961456 1.664985 14.1132246.165375.670255-.24391 1.347668-.914166 1.513044-.670255.165376-1.347668-.24391-1.513044-.914165-.184539-.747923-.354099-1.496758-.508871-2.243286l-.17864-.89452-.08402-.446044-.157485-.888879c-.050155-.295478-.097975-.590071-.143472-.883575l-.129534-.877032c-.040863-.291117-.079415-.580937-.115669-.869255l-.101877-.86024-.08816-.84999-.038959-.420764-.067721-.832296-.054187-.818955-.022042-.404088-.034025-.7966251-.012002-.3922279-.014027-.7715136c-.046841-4.8296517.702884-8.5590824 2.165036-9.7750414.156996-.1305612.371234-.2587677.643943-.3850021l.2481-.1077269.134843-.0535179.291381-.1063782.32045-.1055462.535557-.156876.393876-.1036999.646503-.1543577.468378-.1021884.759061-.1523411.543956-.1010113.574487-.1006341.919354-.1503612.98902-.1498136.698336-.0996608 1.49102-.1990467 1.617967-.1990368 1.746288-.1994553 2.365412-.2505598 2.040047-.2019624 2.736965-.2550487 1.040352-.0936228 12.604229-23.0180989c.331542-.6055335 1.091193-.8276469 1.696726-.4961042zm27.893715 15.6036722c7.506882 2.2788369 13.920469 7.5872671 18.048021 13.6999697.386331.5721364.235705 1.3491274-.336431 1.7354578-.572137.3863304-1.349128.2357049-1.735458-.3364315-1.76092-2.6078363-3.974682-5.0614048-6.523955-7.1548734.148831 2.3943788-.884282 5.7932159-2.953688 9.1049566-.596172.9540748-1.236544 1.8340158-1.899173 2.6252682l-.400073.4639923c-2.816747 3.1718181-5.94869 4.7278191-7.770106 3.5896721-2.34182-1.4633315-1.630458-6.826121 1.588872-11.9781253 2.162075-3.4600439 4.905478-5.9450642 7.183571-6.7608335-1.870518-1.0837811-3.857105-1.9682631-5.927773-2.5968482-.660589-.2005327-1.033538-.8986098-.833005-1.5591989.200532-.6605891.898609-1.0335386 1.559198-.8330059zm.119594-18.9396557c16.898264 5.5692113 31.369242 18.5727323 40.670182 33.5270111.364605.5862206.18495 1.357017-.401271 1.7216218-.58622.3646049-1.357017.1849499-1.721622-.4012707-9.015394-14.4951706-23.051809-27.108197-39.329818-32.472989-.655665-.2160895-1.012011-.9227862-.795922-1.5784512.21609-.655665.922786-1.0120114 1.578451-.795922zm-48.166565-4.0424515c4.946498.9039055 9.209031 3.0276611 11.982278 5.4999591.515315.4593933.560648 1.2495501.101255 1.7648647-.459394.5153146-1.24955.5606477-1.764865.1012544-.653153-.582274-1.407628-1.1461497-2.248669-1.6754368.181646 2.4063442-.911428 5.8900153-3.101345 9.2621919-3.308755 5.0950346-7.868458 8.0061602-10.184383 6.5021811-2.315924-1.5039792-1.511077-6.8535368 1.797677-11.9485714 1.907783-2.9377289 4.231447-5.1494126 6.301097-6.2073587-1.058786-.3435464-2.174177-.6281503-3.332444-.839808-.67911-.1240982-1.129037-.7752275-1.004938-1.4543379.124098-.6791104.775227-1.1290367 1.454337-1.0049384zm14.591253-22.4539269-7.962547.0074344c-9.970948 0-21.725473 3.9378471-34.787708 11.0405307l-1.430136.7873558c-1.196064.6665301-2.402794 1.3589836-3.61983 2.0767797-5.002429 2.950384-9.822847 6.0891113-14.671716 9.5079014l3.417406 2.0703859 2.8804 1.762919 2.812333 1.7382409 2.829917 1.7700041 2.169309 1.3745042 1.526021.9782465 1.502912.9745191 1.483909.9752573.930821.6197249.884079.5953837.837355.5710567.790649.5467435.74396.5224442.697289.498159.650637.4738877.795746.594705c.608343-.7310267 1.221102-1.4621086 1.838047-2.1935003l.768681-.9088825c12.297348-14.5021938 23.789846-26.5852287 34.912466-36.3838009zm68.129048-15.275435-22.062192.0008227-.033663.3111166c-.699353 5.7723594-5.370556 9.5790107-13.512211 11.8742914l-.439477.1215182 1.476912-.0625457 1.472843-.0697946 1.47614-.0783034 1.559569-.0929524 1.588581-.1068559 1.523698-.1154841c2.71487-.2179941 5.136595-.4802362 7.421114-.7947059l.681395-.0959157 1.085908-.1617132.499971-.0784742.990953-.1648371.483523-.0852415.943284-.1762192c.309169-.0600265.613091-.1213479.911806-.1839884l.880567-.1919025c8.217765-1.8611251 12.239121-4.8132431 12.991076-9.4154746l.036563-.2437494zm-15.975573-11.99169297c-5.811059 1.42141269-11.655263 3.57467353-17.544461 6.43470727-1.559112.757168-3.117411 1.5603988-4.676216 2.4101087l-1.171859.6466799h24.6l-.270742-1.9273717c-.265158-1.933978-.512193-3.88246932-.741104-5.84547146z" fill="#121216"/></g></svg>